<svg width="85" height="51" viewBox="0 0 85 51" fill="none" xmlns="http://www.w3.org/2000/svg">
<path d="M3 40H8.57143H17.5714L31.7143 29L39.4286 39L45 46L50.1429 39L55.2857 32L61.7143 42L66 34.3333L69.4286 40H84" stroke="white" stroke-width="2"/>
<path d="M11.88 11.4C14.44 11.4 16.48 12.1333 18 13.6C19.52 15.04 20.28 17.0267 20.28 19.56C20.28 22.0933 19.32 24.2667 17.4 26.08C15.48 27.8667 13.1333 28.76 10.36 28.76H8.08L8.56 39H3.2L3.68 29.28L3.2 11.4H11.88ZM10.44 15.44H8.48L8.2 24.88H10.92C12.2533 24.88 13.28 24.44 14 23.56C14.7467 22.68 15.12 21.4267 15.12 19.8C15.12 16.8933 13.56 15.44 10.44 15.44ZM27.4716 39C26.0316 39 24.8582 38.5333 23.9516 37.6C23.0716 36.64 22.6316 35.3867 22.6316 33.84L22.8716 29.24L22.4316 19.64L27.7916 18.64L27.2716 30.8C27.2716 31.9467 27.4716 32.7867 27.8716 33.32C28.2982 33.8533 28.9649 34.12 29.8716 34.12C30.7782 34.12 32.0316 33.6667 33.6316 32.76V30.36L33.1916 19.84L38.5916 18.84L38.1116 28.84L38.1516 32.12C38.1516 33.8267 38.5916 35.5467 39.4716 37.28L35.3116 39.12C34.4316 37.3867 33.8982 36 33.7116 34.96C31.3116 37.6533 29.2316 39 27.4716 39ZM48.5422 8.04L48.0222 28.6L48.4622 38L43.0622 39L43.5422 29.28L43.0622 9.04L48.5422 8.04ZM59.2194 35.28C60.606 35.28 61.2994 34.6667 61.2994 33.44C61.2994 33.0133 60.9927 32.6133 60.3794 32.24C59.7927 31.8667 59.0594 31.4933 58.1794 31.12C57.326 30.7467 56.4594 30.3333 55.5794 29.88C54.726 29.4 53.9927 28.7467 53.3794 27.92C52.7927 27.0933 52.4994 26.1467 52.4994 25.08C52.4994 23.2933 53.286 21.7333 54.8594 20.4C56.4327 19.0667 58.246 18.4 60.2994 18.4C61.2594 18.4 62.1927 18.52 63.0994 18.76C64.0327 18.9733 64.926 19.32 65.7794 19.8L63.0994 24.68C62.9127 24.52 62.6727 24.32 62.3794 24.08C62.086 23.84 61.526 23.5333 60.6994 23.16C59.8994 22.76 59.1794 22.56 58.5394 22.56C57.926 22.56 57.446 22.7067 57.0994 23C56.7794 23.2667 56.6194 23.6533 56.6194 24.16C56.6194 24.64 57.0727 25.1333 57.9794 25.64C58.9127 26.12 59.926 26.5733 61.0194 27C62.1127 27.4 63.1127 28.08 64.0194 29.04C64.9527 29.9733 65.4194 31.0933 65.4194 32.4C65.4194 34.2667 64.646 35.9067 63.0994 37.32C61.5794 38.7333 59.8194 39.44 57.8194 39.44C56.5394 39.44 55.3394 39.16 54.2194 38.6C53.126 38.04 52.3394 37.48 51.8594 36.92L51.1394 36.08L54.2994 32.4C54.4594 32.6133 54.686 32.88 54.9794 33.2C55.2727 33.52 55.846 33.9467 56.6994 34.48C57.5794 35.0133 58.4194 35.28 59.2194 35.28ZM76.1216 34.92C76.8949 34.92 77.7082 34.72 78.5616 34.32C79.4149 33.92 80.0816 33.52 80.5616 33.12L81.2816 32.52L83.1216 34.76C82.8549 35.2133 82.4416 35.7333 81.8816 36.32C81.3216 36.9067 80.7482 37.4133 80.1616 37.84C79.6016 38.24 78.8416 38.6133 77.8816 38.96C76.9482 39.28 75.9749 39.44 74.9616 39.44C72.8016 39.44 71.0416 38.6267 69.6816 37C68.3216 35.3467 67.6416 33.2267 67.6416 30.64C67.6416 27.3867 68.5882 24.5333 70.4816 22.08C72.3749 19.6267 74.5882 18.4 77.1216 18.4C79.0682 18.4 80.5749 18.9467 81.6416 20.04C82.7349 21.1333 83.2816 22.6667 83.2816 24.64C83.2816 25.8133 83.0816 27.1467 82.6816 28.64L81.8816 29.48L71.8816 30.4C72.3349 33.4133 73.7482 34.92 76.1216 34.92ZM76.1216 22.52C74.9482 22.52 73.9616 23 73.1616 23.96C72.3616 24.8933 71.8949 26.0933 71.7616 27.56L78.5616 26.72C78.6416 26.1067 78.6816 25.6 78.6816 25.2C78.6816 23.4133 77.8282 22.52 76.1216 22.52Z" fill="#182FFF"/>
</svg>
