<svg width="45" height="21" viewBox="0 0 45 21" fill="none" xmlns="http://www.w3.org/2000/svg">
<path fill-rule="evenodd" clip-rule="evenodd" d="M22.7651 0.0464586C21.5218 0.130869 20.0739 0.53124 18.1225 1.33013C15.6083 2.35941 11.6863 4.59262 9.94399 5.98699C9.3884 6.43163 8.85502 6.70729 8.19323 6.89182C7.15108 7.18238 3.68544 8.60521 2.06749 9.40681C1.55682 9.65979 1.45007 9.73441 1.2886 9.95156C0.686491 10.761 0.229043 12.4391 0.0373606 14.5413C-0.0289181 15.2681 -0.00390726 16.4754 0.0878324 16.9781C0.163065 17.3903 0.365852 17.9407 0.531624 18.1825C0.719205 18.4562 0.886077 18.5025 1.69688 18.5059L2.37857 18.5087L2.40518 17.2666C2.44055 15.6154 2.52489 15.2351 3.0224 14.4843C3.14755 14.2954 3.43433 13.9521 3.65968 13.7214C4.65185 12.7056 5.76028 12.2879 7.29284 12.3523C8.61747 12.4079 9.41906 12.7365 10.3131 13.5905C10.9891 14.2363 11.3552 14.7864 11.5488 15.4475C11.6455 15.7778 11.6627 15.9867 11.6894 17.1537L11.7198 18.4836L23.0854 18.4963L34.451 18.5089L34.4405 17.342C34.4308 16.2608 34.4385 16.1443 34.5451 15.7543C34.9152 14.4018 35.9423 13.2287 37.2259 12.6926C38.4373 12.1866 39.8266 12.1828 41.0112 12.6821C41.49 12.884 41.9042 13.196 42.4589 13.773C43.1487 14.4903 43.5042 15.0736 43.713 15.8306C43.7994 16.1436 43.8269 16.4096 43.8459 17.1161C43.859 17.606 43.8842 18.0063 43.9018 18.0056C43.9589 18.0034 44.3948 17.3862 44.528 17.119C44.9781 16.2153 45.123 14.7024 44.89 13.3397C44.85 13.1051 44.7384 12.4615 44.6422 11.9095C44.546 11.3574 44.4071 10.5219 44.3335 10.0526C43.8131 6.73153 42.4622 4.18256 40.3853 2.60265C39.7642 2.13017 39.6673 1.98689 39.6244 1.47757C39.6041 1.23618 39.5609 1.0497 39.5116 0.989725C39.407 0.862558 38.7136 0.629853 37.9726 0.473177C36.7893 0.222957 34.9899 0.118172 30.5529 0.0410387C27.282 -0.0157701 23.6447 -0.0132609 22.7651 0.0464586ZM30.5029 1.2954C31.0118 1.32295 31.7997 1.38152 32.2536 1.42548C33.5494 1.55104 36.886 2.13403 37.7002 2.37717L37.9695 2.45757L37.9392 2.74222C37.8895 3.21054 37.5118 4.52964 37.253 5.13973C37.1371 5.41268 36.8849 5.69467 36.648 5.81586C36.2483 6.02046 35.2345 6.2057 32.9539 6.49084C32.1698 6.58885 30.9543 6.74688 30.2528 6.84203C28.4937 7.08056 27.8375 7.16612 27.7642 7.16663C27.7149 7.16693 27.7017 6.54163 27.7017 4.20615V1.24526L28.6396 1.24531C29.1554 1.24531 29.9939 1.26785 30.5029 1.2954ZM26.4978 1.38959C26.5564 1.4994 26.4993 1.92065 26.1977 3.60393C26.0148 4.62463 25.5364 7.00754 25.4692 7.23262C25.4543 7.2825 25.3868 7.34443 25.3192 7.37022C24.9399 7.51491 21.0351 7.88853 16.872 8.17845C16.3768 8.21292 15.1162 8.24188 14.0708 8.24278C12.4915 8.24414 12.096 8.23013 11.7329 8.15998C10.7581 7.97174 10.4176 7.65522 10.6679 7.16984C10.9284 6.66438 12.9642 5.32315 14.9712 4.33487C17.8899 2.89754 21.1588 1.95512 25.0755 1.42181C26.1807 1.27136 26.4317 1.26569 26.4978 1.38959ZM6.76512 8.71421C6.73901 8.73715 6.50375 8.94607 6.24239 9.17857C4.49484 10.733 2.24872 12.3655 1.16915 12.8659C0.438084 13.2048 0.322284 13.0284 0.736913 12.2075C1.09277 11.5029 1.57743 10.8446 2.21565 10.1989C2.61277 9.79719 2.84247 9.60654 3.04101 9.51385C3.41502 9.33931 4.73614 8.94587 5.44075 8.79918C5.99518 8.68375 6.86341 8.62805 6.76512 8.71421ZM6.76762 13.1217C5.64028 13.2429 4.96249 13.5637 4.25458 14.3114C3.83155 14.7582 3.53277 15.2473 3.32243 15.8374C3.17477 16.2517 3.16631 16.3151 3.16651 17.0032C3.16681 17.8286 3.25345 18.2319 3.56724 18.8689C4.0547 19.8585 4.90997 20.5727 5.97012 20.8755C6.49875 21.0265 7.49243 21.0375 8.01816 20.8981C8.73982 20.7069 9.34798 20.3623 9.82904 19.8719C10.6255 19.06 11.0435 17.962 10.9784 16.8526C10.9427 16.2419 10.8474 15.883 10.5723 15.322C9.93904 14.0309 8.72516 13.2192 7.29284 13.1292C7.08651 13.1162 6.85015 13.1128 6.76762 13.1217ZM38.4271 13.1372C37.7086 13.2915 36.9867 13.6428 36.5164 14.067C35.9649 14.5645 35.4998 15.3532 35.3054 16.1204C35.1793 16.6184 35.1702 17.4545 35.2852 17.9719C35.3749 18.3751 35.6631 19.0338 35.9026 19.3832C36.2955 19.9561 36.9684 20.4681 37.6625 20.7222C38.8071 21.1413 39.9362 21.0859 41.0074 20.5581C41.7897 20.1727 42.5243 19.2726 42.8716 18.2738C43.0836 17.664 43.1203 16.8696 42.9649 16.2531C42.7556 15.4229 42.2015 14.5788 41.4874 14.0024C40.7075 13.373 40.0986 13.1346 39.2066 13.1095C38.8902 13.1006 38.5394 13.1131 38.4271 13.1372ZM7.56401 14.3662C8.09949 14.5025 8.4595 14.6876 8.89279 15.0493C9.89672 15.8876 10.0907 17.3117 9.36194 18.4943C8.86477 19.301 7.97264 19.8135 7.06525 19.8135C5.75083 19.8135 4.62924 18.8686 4.35903 17.5337C4.14889 16.4955 4.6413 15.422 5.62953 14.7639C5.91965 14.5707 6.23809 14.4336 6.66497 14.3181C7.00662 14.2256 7.01257 14.2259 7.56401 14.3662ZM39.7571 14.397C40.6031 14.6322 41.1364 15.0579 41.5041 15.7917C41.7759 16.334 41.8763 16.7709 41.8401 17.2541C41.7275 18.7588 40.4414 19.8928 38.9565 19.7966C38.2637 19.7518 37.7119 19.5183 37.2464 19.0727C35.9253 17.8085 36.103 15.8619 37.64 14.7616C38.2806 14.303 38.9835 14.182 39.7571 14.397Z" fill="#182FFF"/>
</svg>
