<svg width="81" height="32" viewBox="0 0 81 32" fill="none" xmlns="http://www.w3.org/2000/svg">
<path d="M8.88 3.4C11.44 3.4 13.48 4.13333 15 5.6C16.52 7.04 17.28 9.02667 17.28 11.56C17.28 14.0933 16.32 16.2667 14.4 18.08C12.48 19.8667 10.1333 20.76 7.36 20.76H5.08L5.56 31H0.2L0.68 21.28L0.2 3.4H8.88ZM7.44 7.44H5.48L5.2 16.88H7.92C9.25333 16.88 10.28 16.44 11 15.56C11.7467 14.68 12.12 13.4267 12.12 11.8C12.12 8.89333 10.56 7.44 7.44 7.44ZM24.4716 31C23.0316 31 21.8582 30.5333 20.9516 29.6C20.0716 28.64 19.6316 27.3867 19.6316 25.84L19.8716 21.24L19.4316 11.64L24.7916 10.64L24.2716 22.8C24.2716 23.9467 24.4716 24.7867 24.8716 25.32C25.2982 25.8533 25.9649 26.12 26.8716 26.12C27.7782 26.12 29.0316 25.6667 30.6316 24.76V22.36L30.1916 11.84L35.5916 10.84L35.1116 20.84L35.1516 24.12C35.1516 25.8267 35.5916 27.5467 36.4716 29.28L32.3116 31.12C31.4316 29.3867 30.8982 28 30.7116 26.96C28.3116 29.6533 26.2316 31 24.4716 31ZM45.5422 0.0399981L45.0222 20.6L45.4622 30L40.0622 31L40.5422 21.28L40.0622 1.04L45.5422 0.0399981ZM56.2194 27.28C57.606 27.28 58.2994 26.6667 58.2994 25.44C58.2994 25.0133 57.9927 24.6133 57.3794 24.24C56.7927 23.8667 56.0594 23.4933 55.1794 23.12C54.326 22.7467 53.4594 22.3333 52.5794 21.88C51.726 21.4 50.9927 20.7467 50.3794 19.92C49.7927 19.0933 49.4994 18.1467 49.4994 17.08C49.4994 15.2933 50.286 13.7333 51.8594 12.4C53.4327 11.0667 55.246 10.4 57.2994 10.4C58.2594 10.4 59.1927 10.52 60.0994 10.76C61.0327 10.9733 61.926 11.32 62.7794 11.8L60.0994 16.68C59.9127 16.52 59.6727 16.32 59.3794 16.08C59.086 15.84 58.526 15.5333 57.6994 15.16C56.8994 14.76 56.1794 14.56 55.5394 14.56C54.926 14.56 54.446 14.7067 54.0994 15C53.7794 15.2667 53.6194 15.6533 53.6194 16.16C53.6194 16.64 54.0727 17.1333 54.9794 17.64C55.9127 18.12 56.926 18.5733 58.0194 19C59.1127 19.4 60.1127 20.08 61.0194 21.04C61.9527 21.9733 62.4194 23.0933 62.4194 24.4C62.4194 26.2667 61.646 27.9067 60.0994 29.32C58.5794 30.7333 56.8194 31.44 54.8194 31.44C53.5394 31.44 52.3394 31.16 51.2194 30.6C50.126 30.04 49.3394 29.48 48.8594 28.92L48.1394 28.08L51.2994 24.4C51.4594 24.6133 51.686 24.88 51.9794 25.2C52.2727 25.52 52.846 25.9467 53.6994 26.48C54.5794 27.0133 55.4194 27.28 56.2194 27.28ZM73.1216 26.92C73.8949 26.92 74.7082 26.72 75.5616 26.32C76.4149 25.92 77.0816 25.52 77.5616 25.12L78.2816 24.52L80.1216 26.76C79.8549 27.2133 79.4416 27.7333 78.8816 28.32C78.3216 28.9067 77.7482 29.4133 77.1616 29.84C76.6016 30.24 75.8416 30.6133 74.8816 30.96C73.9482 31.28 72.9749 31.44 71.9616 31.44C69.8016 31.44 68.0416 30.6267 66.6816 29C65.3216 27.3467 64.6416 25.2267 64.6416 22.64C64.6416 19.3867 65.5882 16.5333 67.4816 14.08C69.3749 11.6267 71.5882 10.4 74.1216 10.4C76.0682 10.4 77.5749 10.9467 78.6416 12.04C79.7349 13.1333 80.2816 14.6667 80.2816 16.64C80.2816 17.8133 80.0816 19.1467 79.6816 20.64L78.8816 21.48L68.8816 22.4C69.3349 25.4133 70.7482 26.92 73.1216 26.92ZM73.1216 14.52C71.9482 14.52 70.9616 15 70.1616 15.96C69.3616 16.8933 68.8949 18.0933 68.7616 19.56L75.5616 18.72C75.6416 18.1067 75.6816 17.6 75.6816 17.2C75.6816 15.4133 74.8282 14.52 73.1216 14.52Z" fill="#828282"/>
</svg>
