<svg width="31" height="31" viewBox="0 0 31 31" fill="none" xmlns="http://www.w3.org/2000/svg">
<path d="M28.7696 13.493L28.2758 13.4546C28.0514 13.4161 27.8269 13.5315 27.6474 13.7237C26.9965 14.4541 26.2335 14.8769 25.4255 14.8769C24.5951 14.8769 23.832 14.4541 23.2036 13.7237C23.0241 13.5315 22.7997 13.4546 22.5752 13.4546L22.0815 13.493C21.9244 13.493 21.7673 13.5699 21.6102 13.6083C21.9244 14.5309 22.0815 15.6073 22.059 16.7221V16.7605L21.4755 28.2546C21.4755 28.5237 21.4306 28.7928 21.3857 29.0234C21.4082 29.0234 21.4306 29.0234 21.4306 29.0234C22.8221 29.2156 23.9218 29.331 25.4031 29.331C26.8843 29.331 27.984 29.2156 29.3755 29.0234C29.959 28.9465 30.4079 28.1392 30.4303 27.1782L30.9914 17.8369C31.1036 15.6073 30.0937 13.6468 28.7696 13.493Z" fill="white"/>
<path d="M25.426 13.6468C27.2853 13.6468 28.7925 11.0652 28.7925 7.88056C28.7925 4.69595 27.2853 2.11432 25.426 2.11432C23.5668 2.11432 22.0596 4.69595 22.0596 7.88056C22.0596 11.0652 23.5668 13.6468 25.426 13.6468Z" fill="white"/>
<path d="M19.0068 12.1476L18.5131 12.1092C18.2886 12.0707 18.0642 12.1861 17.8622 12.3783C17.1889 13.1471 16.4034 13.5699 15.5505 13.5699C14.6977 13.5699 13.9122 13.1471 13.2389 12.3783C13.0594 12.1476 12.8125 12.0707 12.588 12.1092L12.0943 12.1476C10.7028 12.3014 9.64798 14.3388 9.73775 16.6837L10.3213 28.1778C10.3662 29.2157 10.8375 30.023 11.421 30.0999C12.8798 30.3305 14.0244 30.4458 15.5505 30.4458C17.0991 30.4458 18.2437 30.3305 19.7025 30.0999C20.3085 30.023 20.7798 29.1773 20.8023 28.1778L21.3858 16.6837C21.4307 14.3388 20.3983 12.3014 19.0068 12.1476Z" fill="white"/>
<path d="M15.6496 11.9938C17.5832 11.9938 19.1507 9.3089 19.1507 5.99691C19.1507 2.68491 17.5832 0 15.6496 0C13.716 0 12.1484 2.68491 12.1484 5.99691C12.1484 9.3089 13.716 11.9938 15.6496 11.9938Z" fill="white"/>
<path d="M9.08489 13.3181L8.56903 13.2832C8.35001 13.2483 8.13098 13.3531 7.93386 13.5276C7.27679 14.2257 6.51021 14.6096 5.67792 14.6096C4.84563 14.6096 4.07905 14.2257 3.42198 13.5276C3.24676 13.3182 3.00583 13.2483 2.7868 13.2832L2.30495 13.3181C0.947004 13.4578 -0.0824074 15.3077 0.00520206 17.4369L0.574672 27.8734C0.618476 28.8158 1.07842 29.5488 1.64788 29.6186C3.07153 29.828 4.18856 29.9327 5.67792 29.9327C7.18918 29.9327 7.17957 30.1421 8.60323 29.9327C9.19459 29.8629 9.72539 29.9327 9.90438 28.8312C10.0834 27.7296 9.72539 25.9543 9.72539 25.9543L9.53032 22.4242C9.53032 22.4242 9.37837 20.3223 9.35133 19.0409C9.31949 17.5319 9.37837 14.9936 9.37837 14.9936C9.72539 13.924 10.8475 12.634 9.08489 13.3181Z" fill="white"/>
<path d="M5.78933 12.8139C7.64859 12.8139 9.15581 10.2322 9.15581 7.04761C9.15581 3.86301 7.64859 1.28137 5.78933 1.28137C3.93008 1.28137 2.42285 3.86301 2.42285 7.04761C2.42285 10.2322 3.93008 12.8139 5.78933 12.8139Z" fill="white"/>
</svg>
