<svg width="30" height="30" viewBox="0 0 30 30" fill="none" xmlns="http://www.w3.org/2000/svg">
<path d="M5 0C2.2154 0 0 2.2154 0 5V25C0 27.7846 2.2154 30 5 30H25C27.7846 30 30 27.7846 30 25V7.85714L28.5714 9.50893V25C28.5714 27.0006 27.0006 28.5714 25 28.5714H5C2.99944 28.5714 1.42857 27.0006 1.42857 25V5C1.42857 2.99944 2.99944 1.42857 5 1.42857H23.8616L25 0H5ZM28.0357 2.67857L14.2188 18.9732L8.41518 13.5491L7.43304 14.5982L13.7946 20.5134L14.3527 21.0268L14.8214 20.4688L29.1071 3.59375L28.0357 2.67857Z" fill="white"/>
</svg>
