<svg width="26" height="31" viewBox="0 0 26 31" fill="none" xmlns="http://www.w3.org/2000/svg">
<path d="M22.582 10.0354L16.1782 15.66H9.73703L3.33315 10.0354C3.04296 9.78019 2.57276 9.78019 2.2818 10.0354C1.992 10.29 1.992 10.703 2.2818 10.9582L8.91613 16.7849V21.775L2.2818 27.6014C1.992 27.8566 1.992 28.2689 2.2818 28.5242C2.42767 28.6523 2.61777 28.7153 2.80825 28.7153C2.99679 28.7153 3.18805 28.6523 3.33276 28.5242L9.46391 23.1388C9.52637 23.1537 9.59077 23.1643 9.65866 23.1643H16.3446C16.3869 23.1643 16.4276 23.1592 16.468 23.1534L22.582 28.5242C22.7267 28.6523 22.9168 28.7153 23.1066 28.7153C23.297 28.7153 23.4867 28.6523 23.6318 28.5242C23.9224 28.2689 23.9224 27.8563 23.6318 27.6014L17.0875 21.8534V16.7072L23.6318 10.9585C23.9224 10.7033 23.9224 10.2906 23.6318 10.0358C23.3428 9.78019 22.8715 9.78019 22.582 10.0354ZM10.402 16.9652H15.6028V21.8289C15.5982 21.8387 15.5962 21.8493 15.5924 21.8592H10.402V16.9652Z" fill="black"/>
<path d="M25.2582 0H10.7885C10.4665 0 10.1794 0.18333 10.0813 0.453214L8.04491 6.03797L7.96926 6.05637L7.12896 3.1633C7.07853 2.99257 6.95206 2.84673 6.77903 2.75847C6.60484 2.67158 6.39768 2.64909 6.20526 2.69782L1.11536 3.96886C0.728569 4.06495 0.498903 4.41526 0.598994 4.75772L1.44007 7.65352L0.543906 7.87263C0.222295 7.95169 0 8.20794 0 8.50134V30.0157C0 30.3766 0.33286 30.6686 0.742923 30.6686H25.2579C25.6687 30.6686 26 30.3762 26 30.0157V0.651878C26.0008 0.292374 25.6691 0 25.2582 0ZM5.87782 4.13651L6.51523 6.32898L2.85531 7.2429L2.21752 5.04976L5.87782 4.13651ZM24.5153 29.3635H1.48662V8.99681L8.82935 7.20099C9.07026 7.14238 9.26075 6.98052 9.33678 6.77163L11.3308 1.30512H24.5149L24.5153 29.3635Z" fill="black"/>
<path d="M10.9012 6.90524C11.0401 7.07596 11.2647 7.17785 11.5045 7.17785H22.6592C23.0689 7.17785 23.401 6.88616 23.401 6.52529V2.61027C23.401 2.24941 23.0689 1.95703 22.6592 1.95703H13.0132C12.6947 1.95703 12.4123 2.13559 12.3091 2.4007L10.8011 6.31572C10.7239 6.51473 10.7616 6.73452 10.9012 6.90524ZM13.5463 3.26283H21.9151V5.87239H12.5407L13.5463 3.26283Z" fill="black"/>
</svg>
