<svg width="29" height="30" viewBox="0 0 29 30" fill="none" xmlns="http://www.w3.org/2000/svg">
<path fill-rule="evenodd" clip-rule="evenodd" d="M14.5 2.72727C7.94789 2.72727 2.63637 8.22195 2.63637 15C2.63637 21.778 7.94789 27.2727 14.5 27.2727C21.0521 27.2727 26.3637 21.778 26.3637 15C26.3637 8.22195 21.0521 2.72727 14.5 2.72727ZM0 15C0 6.71572 6.49187 0 14.5 0C22.5081 0 29 6.71572 29 15C29 23.2843 22.5081 30 14.5 30C6.49187 30 0 23.2843 0 15Z" fill="black"/>
<path d="M17.0864 16.06L14.9069 9.5506C14.8423 9.35706 14.7745 9.13375 14.7034 8.88066C14.6324 8.62014 14.5646 8.34472 14.5 8.05442C14.3644 8.65735 14.2255 9.1598 14.0835 9.56177L11.9039 16.06H17.0864ZM21 22H19.5469C19.379 22 19.2434 21.9516 19.1401 21.8549C19.0368 21.758 18.9593 21.6352 18.9076 21.4863L17.6095 17.6232H11.3808L10.0827 21.4863C10.044 21.6203 9.96969 21.7395 9.85991 21.8438C9.75012 21.9479 9.61129 22 9.44337 22H8L13.5507 6H15.4493L21 22Z" fill="black"/>
</svg>
