<svg width="30" height="29" viewBox="0 0 30 29" fill="none" xmlns="http://www.w3.org/2000/svg">
<path d="M29.4904 3.82681L30 3.46804L28.7261 2.09279L28.2803 2.45154C27.5159 3.08937 26.9746 3.56771 26.656 3.88659C26.3376 4.20548 26.0084 4.62404 25.6689 5.14227C25.3291 5.6605 25.0743 6.21856 24.9044 6.81649C24.4794 8.25154 24.3096 10.1052 24.3949 12.3773C24.4374 14.3306 24.6709 15.8054 25.0956 16.802L25.2866 17.2804C26.1783 19.3533 26.6241 21.187 26.6241 22.7814C26.6241 25.6914 25.3716 27.1463 22.8663 27.1463C20.6157 27.1463 19.4056 25.7513 19.2357 22.9609C19.1931 22.1635 19.4267 20.7086 19.9363 18.5958C20.4036 16.7621 20.6796 15.3471 20.7643 14.3505C20.9764 12.6763 20.743 11.5003 20.0637 10.8227C19.4267 10.145 18.3014 9.80619 16.6879 9.80619H16.3057V1.31546C16.3057 0.956701 16.1783 0.647747 15.9236 0.388659C15.6689 0.129573 15.3503 0 14.9681 0H1.52866C1.1465 0 0.796179 0.129573 0.477707 0.388659C0.159236 0.647747 0 0.956701 0 1.31546V28.2227H16.3057V11.6598H16.6879C17.707 11.6598 18.344 11.7794 18.5987 12.0186C18.896 12.3374 18.9809 13.0351 18.8536 14.1113C18.7261 15.0681 18.4501 16.4234 18.0254 18.1773C17.4733 20.4495 17.2397 22.0838 17.3249 23.0804C17.4099 24.9539 17.9406 26.409 18.9171 27.4453C19.8939 28.4818 21.2101 29 22.8663 29C24.6497 29 26.0403 28.4519 27.0383 27.3557C28.0361 26.2595 28.535 24.7347 28.535 22.7814C28.535 20.9477 28.0467 18.8749 27.07 16.5629L26.879 16.0846C26.5817 15.367 26.4117 14.2309 26.3694 12.6763C27.2187 12.6364 27.7919 12.6165 28.0891 12.6165C28.811 12.6165 29.2569 12.2378 29.4267 11.4804C29.4693 11.2412 29.4799 11.0718 29.4586 10.9722C29.4374 10.8725 29.4161 10.6533 29.3949 10.3144C29.3737 9.97558 29.363 9.68659 29.363 9.44742V9.14846C29.363 7.87288 29.2676 6.94607 29.0764 6.36804C28.8853 5.79001 28.5776 5.32165 28.1529 4.96289C28.2803 4.8433 28.5031 4.65393 28.8217 4.39485C29.1401 4.13576 29.363 3.94639 29.4904 3.82681ZM14.3949 10.4639H1.97453V2.45154H14.3949V10.4639ZM26.242 10.8227C26.2846 9.5471 26.4543 8.37114 26.7516 7.29485C26.7516 7.21478 26.7729 7.07529 26.8153 6.87629C26.8577 6.67664 26.9001 6.53714 26.9427 6.45773C27.2824 6.73679 27.4523 7.6337 27.4523 9.14846V9.44742C27.4523 9.60689 27.4734 9.84607 27.5159 10.165C27.5584 10.4838 27.5796 10.7031 27.5796 10.8227H26.242Z" fill="black"/>
</svg>
